<?xml version="1.0" encoding="utf-8"?>
<svg aria-hidden="true" focusable="false" data-prefix="fas" data-icon="signal" class="svg-inline--fa fa-signal fa-w-20" role="img" viewBox="0 0 640 512" xmlns="http://www.w3.org/2000/svg">
  <path d="M 216 288 L 168 288 C 159.16 288 152 295.16 152 304 L 152 496 C 152 504.84 159.16 512 168 512 L 216 512 C 224.84 512 232 504.84 232 496 L 232 304 C 232 295.16 224.84 288 216 288 Z" style="fill: rgba(177, 47, 47, 0.9);"/>
  <path d="M 600 0 L 552 0 C 543.16 0 536 7.16 536 16 L 536 496 C 536 504.84 543.16 512 552 512 L 600 512 C 608.84 512 616 504.84 616 496 L 616 16 C 616 7.16 608.84 0 600 0 Z" style="fill: rgba(177, 47, 47, 0.9);"/>
  <path d="M 472 96 L 424 96 C 415.16 96 408 103.16 408 112 L 408 496 C 408 504.84 415.16 512 424 512 L 472 512 C 480.84 512 488 504.84 488 496 L 488 112 C 488 103.16 480.84 96 472 96 Z" style="fill: rgba(177, 47, 47, 0.9);"/>
  <path d="M 344 192 L 296 192 C 287.16 192 280 199.16 280 208 L 280 496 C 280 504.84 287.16 512 296 512 L 344 512 C 352.84 512 360 504.84 360 496 L 360 208 C 360 199.16 352.84 192 344 192 Z" style="fill: rgba(177, 47, 47, 0.9);"/>
  <path d="M 88 384 L 40 384 C 31.16 384 24 391.16 24 400 L 24 496 C 24 504.84 31.16 512 40 512 L 88 512 C 96.84 512 104 504.84 104 496 L 104 400 C 104 391.16 96.84 384 88 384 Z" style="fill: rgba(177, 47, 47, 0.9);"/>
</svg>